<svg width="162" height="101" viewBox="0 0 162 101" fill="none" xmlns="http://www.w3.org/2000/svg">
<path fill-rule="evenodd" clip-rule="evenodd" d="M35.891 18.0197L14 39.9117L22.484 48.3937L35.892 34.9867L49.299 48.3937L57.783 39.9117L35.891 18.0197ZM14.0003 61.1198L35.8913 83.0118L57.7823 61.1198L35.8913 39.2288L14.0003 61.1198ZM82.4495 53.8995C82.2825 53.2905 82.1995 52.5805 82.1995 51.7725V43.0475C82.1995 42.2395 82.2825 41.5345 82.4495 40.9315C82.6155 40.3305 82.9255 39.8665 83.3765 39.5415C83.8285 39.2165 84.4815 39.0535 85.3375 39.0535C86.1775 39.0535 86.8195 39.2165 87.2625 39.5415C87.7065 39.8665 88.0115 40.3305 88.1785 40.9315C88.3455 41.5345 88.4285 42.2395 88.4285 43.0475V51.7725C88.4285 52.5805 88.3455 53.2905 88.1785 53.8995C88.0115 54.5095 87.7065 54.9855 87.2625 55.3265C86.8195 55.6675 86.1775 55.8365 85.3375 55.8365C84.4815 55.8365 83.8285 55.6675 83.3765 55.3265C82.9255 54.9855 82.6155 54.5095 82.4495 53.8995ZM88.3085 56.5265C89.0225 56.0195 89.5255 55.3265 89.8185 54.4465C90.1115 53.5675 90.2595 52.5485 90.2595 51.3915V43.3805C90.2595 42.2085 90.1075 41.1895 89.8065 40.3255C89.5065 39.4615 88.9945 38.7925 88.2735 38.3165C87.5525 37.8405 86.5735 37.6035 85.3375 37.6035C84.0855 37.6035 83.0985 37.8405 82.3785 38.3165C81.6565 38.7925 81.1415 39.4615 80.8325 40.3255C80.5235 41.1895 80.3695 42.2085 80.3695 43.3805V51.3685C80.3695 52.5255 80.5145 53.5515 80.8085 54.4465C81.1015 55.3415 81.6085 56.0395 82.3305 56.5395C83.0515 57.0385 84.0535 57.2875 85.3375 57.2875C86.6055 57.2875 87.5955 57.0345 88.3085 56.5265ZM74.33 37.6036C75.488 37.6036 76.395 37.8256 77.052 38.2696C77.71 38.7126 78.182 39.3426 78.467 40.1596C78.752 40.9756 78.895 41.9466 78.895 43.0716V44.2366H77.183V43.1196C77.183 42.2796 77.115 41.5576 76.981 40.9556C76.846 40.3536 76.573 39.8856 76.161 39.5526C75.748 39.2196 75.147 39.0536 74.354 39.0536C73.483 39.0536 72.828 39.2326 72.393 39.5886C71.956 39.9456 71.663 40.4486 71.513 41.0986C71.363 41.7486 71.287 42.5006 71.287 43.3566V51.5586C71.287 52.5086 71.378 53.3016 71.561 53.9356C71.742 54.5696 72.056 55.0446 72.5 55.3626C72.944 55.6786 73.562 55.8366 74.354 55.8366C75.162 55.8366 75.769 55.6636 76.173 55.3146C76.577 54.9656 76.846 54.4786 76.981 53.8526C77.115 53.2266 77.183 52.4936 77.183 51.6536V50.3936H78.895V51.5346C78.895 52.6606 78.764 53.6546 78.502 54.5176C78.241 55.3816 77.781 56.0596 77.123 56.5506C76.466 57.0416 75.534 57.2876 74.33 57.2876C73.031 57.2876 72.029 57.0186 71.323 56.4796C70.617 55.9406 70.13 55.2156 69.861 54.3036C69.591 53.3926 69.457 52.3826 69.457 51.2726V43.6186C69.457 42.4296 69.595 41.3836 69.873 40.4806C70.15 39.5766 70.646 38.8726 71.359 38.3646C72.072 37.8576 73.062 37.6036 74.33 37.6036ZM128.244 63.3809H129.978V63.0459H128.657V62.1649H129.861V61.8379H128.657V60.9879H129.978V60.6529H128.244V63.3809ZM125.17 60.6531L126.538 62.7071V60.6531H126.951V63.3811H126.538L125.17 61.3271V63.3811H124.757V60.6531H125.17ZM123.463 63.3814H123.05V60.6534H123.463V63.3814ZM133.346 61.8223H134.667V60.6533H135.08V63.3813H134.667V62.1613H133.346V63.3813H132.933V60.6533H133.346V61.8223ZM136.373 63.3809H138.107V63.0459H136.786V62.1649H137.99V61.8379H136.786V60.9879H138.107V60.6529H136.373V63.3809ZM139.752 61.9698H140.255C140.442 61.9698 140.579 61.9248 140.666 61.8338C140.753 61.7428 140.797 61.6248 140.797 61.4798C140.797 61.3338 140.754 61.2178 140.668 61.1308C140.582 61.0428 140.443 60.9998 140.251 60.9998H139.752V61.9698ZM141.222 61.4678C141.222 61.6368 141.177 61.7898 141.087 61.9278C140.997 62.0658 140.858 62.1638 140.668 62.2238L141.249 63.3808H140.77L140.239 62.2818H139.752V63.3808H139.339V60.6538H140.278C140.494 60.6538 140.671 60.6898 140.811 60.7618C140.949 60.8348 141.053 60.9328 141.12 61.0568C141.188 61.1798 141.222 61.3168 141.222 61.4678ZM142.449 63.3809H144.182V63.0459H142.861V62.1649H144.065V61.8379H142.861V60.9879H144.182V60.6529H142.449V63.3809ZM97.6519 57.0503L94.0139 41.7403L93.6339 57.0503H92.1359L92.6119 37.7943H94.4179L98.2219 54.5063L102.097 37.7943H103.904L104.379 57.0503H102.881L102.501 41.7163L98.8169 57.0503H97.6519ZM108.445 46.5899V39.1489H110.774C111.631 39.1489 112.292 39.2559 112.759 39.4699C113.226 39.6839 113.555 40.0649 113.746 40.6109C113.936 41.1569 114.031 41.9229 114.031 42.9049C114.031 43.8239 113.921 44.5539 113.699 45.0919C113.476 45.6309 113.124 46.0159 112.64 46.2449C112.157 46.4749 111.527 46.5899 110.751 46.5899H108.445ZM113.924 47.2559C114.597 46.7959 115.081 46.1819 115.375 45.4129C115.668 44.6449 115.814 43.8089 115.814 42.9049C115.814 41.8749 115.675 40.9799 115.398 40.2189C115.121 39.4579 114.649 38.8629 113.984 38.4359C113.318 38.0079 112.407 37.7939 111.25 37.7939H106.637V57.0499H108.445V47.9449H111.273C112.367 47.9449 113.251 47.7149 113.924 47.2559ZM120.189 40.1941L118.145 50.5831H122.234L120.189 40.1941ZM121.117 37.7941L125.206 57.0501H123.422L122.471 51.8911H117.883L116.909 57.0501H115.149L119.214 37.7941H121.117ZM134.025 52.7471L127.891 37.7941H126.584V57.0501H128.153V41.9311L134.31 57.0501H135.594V37.7941H134.025V52.7471ZM142.82 57.0499H141.061V50.6539L136.71 37.7939H138.469L141.94 48.4909L145.269 37.7939H147.051L142.82 50.6539V57.0499ZM70.634 61.9698L69.991 60.6538H69.524L70.428 62.3748V63.3808H70.841V62.3748L71.737 60.6538H71.274L70.634 61.9698ZM74.3852 62.9323C74.5232 62.8493 74.6322 62.7303 74.7102 62.5743C74.7882 62.4183 74.8272 62.2323 74.8272 62.0163C74.8272 61.8023 74.7882 61.6153 74.7102 61.4603C74.6322 61.3033 74.5232 61.1842 74.3852 61.1013C74.2462 61.0183 74.0832 60.9763 73.8962 60.9763C73.7092 60.9763 73.5452 61.0183 73.4042 61.1013C73.2652 61.1842 73.1562 61.3033 73.0792 61.4603C73.0032 61.6153 72.9652 61.8023 72.9652 62.0163C72.9652 62.2323 73.0032 62.4183 73.0792 62.5743C73.1562 62.7303 73.2652 62.8493 73.4042 62.9323C73.5452 63.0153 73.7092 63.0573 73.8962 63.0573C74.0832 63.0573 74.2462 63.0153 74.3852 62.9323ZM73.8962 60.6063C74.1662 60.6063 74.4022 60.6663 74.6052 60.7853C74.8082 60.9053 74.9662 61.0703 75.0782 61.2823C75.1912 61.4943 75.2482 61.7393 75.2482 62.0163C75.2482 62.2952 75.1912 62.5403 75.0782 62.7523C74.9662 62.9633 74.8082 63.1293 74.6052 63.2483C74.4022 63.3683 74.1662 63.4283 73.8962 63.4283C73.6262 63.4283 73.3892 63.3683 73.1872 63.2483C72.9832 63.1293 72.8252 62.9633 72.7112 62.7523C72.5972 62.5403 72.5402 62.2952 72.5402 62.0163C72.5402 61.7393 72.5972 61.4943 72.7112 61.2823C72.8252 61.0703 72.9832 60.9053 73.1872 60.7853C73.3892 60.6663 73.6262 60.6063 73.8962 60.6063ZM78.1077 62.3604C78.1077 62.5984 78.0507 62.7744 77.9367 62.8854C77.8227 62.9984 77.6697 63.0534 77.4767 63.0534C77.2817 63.0534 77.1277 62.9984 77.0127 62.8854C76.8987 62.7744 76.8407 62.5984 76.8407 62.3604V60.6534H76.4277V62.3564C76.4277 62.6004 76.4747 62.8014 76.5667 62.9604C76.6587 63.1184 76.7837 63.2364 76.9407 63.3124C77.0977 63.3894 77.2737 63.4274 77.4687 63.4274C77.6617 63.4274 77.8367 63.3894 77.9967 63.3124C78.1567 63.2364 78.2837 63.1184 78.3787 62.9604C78.4737 62.8014 78.5207 62.6004 78.5207 62.3564V60.6534H78.1077V62.3604ZM80.2043 61.9698H80.7073C80.8943 61.9698 81.0313 61.9248 81.1183 61.8338C81.2053 61.7428 81.2493 61.6248 81.2493 61.4798C81.2493 61.3338 81.2063 61.2178 81.1203 61.1308C81.0343 61.0428 80.8953 60.9998 80.7033 60.9998H80.2043V61.9698ZM81.6743 61.4678C81.6743 61.6368 81.6293 61.7898 81.5393 61.9278C81.4493 62.0658 81.3103 62.1638 81.1203 62.2238L81.7013 63.3808H81.2223L80.6913 62.2818H80.2043V63.3808H79.7913V60.6538H80.7303C80.9463 60.6538 81.1233 60.6898 81.2633 60.7618C81.4013 60.8348 81.5053 60.9328 81.5723 61.0568C81.6403 61.1798 81.6743 61.3168 81.6743 61.4678ZM85.8352 60.9766C86.0352 60.9766 86.1952 61.0236 86.3142 61.1176C86.4342 61.2096 86.5122 61.3356 86.5492 61.4956H87.0082C86.9542 61.2136 86.8252 60.9966 86.6222 60.8396C86.4202 60.6846 86.1592 60.6066 85.8392 60.6066C85.5692 60.6066 85.3362 60.6656 85.1402 60.7856C84.9432 60.9056 84.7922 61.0706 84.6862 61.2826C84.5792 61.4946 84.5262 61.7406 84.5262 62.0206C84.5262 62.2986 84.5792 62.5436 84.6862 62.7556C84.7922 62.9666 84.9432 63.1316 85.1402 63.2495C85.3362 63.3686 85.5692 63.4276 85.8392 63.4276C86.1592 63.4276 86.4202 63.3506 86.6222 63.1976C86.8252 63.0446 86.9542 62.8326 87.0082 62.5626H86.5492C86.5122 62.7156 86.4342 62.8366 86.3142 62.9246C86.1952 63.0135 86.0352 63.0576 85.8352 63.0576C85.5632 63.0576 85.3472 62.9646 85.1892 62.7806C85.0302 62.5965 84.9512 62.3426 84.9512 62.0206C84.9512 61.6966 85.0302 61.4406 85.1892 61.2546C85.3472 61.0695 85.5632 60.9766 85.8352 60.9766ZM89.9526 62.9323C90.0906 62.8493 90.1996 62.7303 90.2776 62.5743C90.3556 62.4183 90.3946 62.2323 90.3946 62.0163C90.3946 61.8023 90.3556 61.6153 90.2776 61.4603C90.1996 61.3033 90.0906 61.1842 89.9526 61.1013C89.8136 61.0183 89.6506 60.9763 89.4636 60.9763C89.2766 60.9763 89.1126 61.0183 88.9716 61.1013C88.8326 61.1842 88.7236 61.3033 88.6466 61.4603C88.5706 61.6153 88.5326 61.8023 88.5326 62.0163C88.5326 62.2323 88.5706 62.4183 88.6466 62.5743C88.7236 62.7303 88.8326 62.8493 88.9716 62.9323C89.1126 63.0153 89.2766 63.0573 89.4636 63.0573C89.6506 63.0573 89.8136 63.0153 89.9526 62.9323ZM89.4636 60.6063C89.7336 60.6063 89.9696 60.6663 90.1726 60.7853C90.3756 60.9053 90.5336 61.0703 90.6456 61.2823C90.7586 61.4943 90.8156 61.7393 90.8156 62.0163C90.8156 62.2952 90.7586 62.5403 90.6456 62.7523C90.5336 62.9633 90.3756 63.1293 90.1726 63.2483C89.9696 63.3683 89.7336 63.4283 89.4636 63.4283C89.1936 63.4283 88.9566 63.3683 88.7546 63.2483C88.5506 63.1293 88.3926 62.9633 88.2786 62.7523C88.1646 62.5403 88.1076 62.2952 88.1076 62.0163C88.1076 61.7393 88.1646 61.4943 88.2786 61.2823C88.3926 61.0703 88.5506 60.9053 88.7546 60.7853C88.9566 60.6663 89.1936 60.6063 89.4636 60.6063ZM93.427 62.4688L92.503 60.6538H92.016V63.3808H92.429V61.3698L93.267 62.9908H93.586L94.42 61.3658V63.3808H94.833V60.6538H94.347L93.427 62.4688ZM97.0627 61.9435C97.2577 61.9435 97.3977 61.9005 97.4817 61.8165C97.5657 61.7315 97.6087 61.6175 97.6087 61.4715C97.6087 61.3204 97.5657 61.2035 97.4817 61.1195C97.3977 61.0345 97.2577 60.9925 97.0627 60.9925H96.5407V61.9435H97.0627ZM97.0827 60.6535C97.2947 60.6535 97.4717 60.6885 97.6127 60.7595C97.7527 60.8325 97.8567 60.9285 97.9257 61.0525C97.9947 61.1755 98.0297 61.3155 98.0297 61.4715C98.0297 61.6195 97.9967 61.7545 97.9297 61.8785C97.8637 62.0025 97.7597 62.1005 97.6207 62.1725C97.4797 62.2455 97.2997 62.2825 97.0827 62.2825H96.5407V63.3805H96.1277V60.6535H97.0827ZM99.4748 62.3868L99.9148 61.1448L100.356 62.3868H99.4748ZM99.6928 60.6538L98.6878 63.3808H99.1238L99.3578 62.7148H100.472L100.706 63.3808H101.143L100.145 60.6538H99.6928ZM102.677 60.6531L104.045 62.7071V60.6531H104.458V63.3811H104.045L102.677 61.3271V63.3811H102.264V60.6531H102.677ZM106.653 61.9698L106.01 60.6538H105.543L106.447 62.3748V63.3808H106.86V62.3748L107.756 60.6538H107.293L106.653 61.9698ZM111.201 60.9883H110.394V60.6533H112.416V60.9883H111.614V63.3813H111.201V60.9883ZM113.858 62.3868L114.298 61.1448L114.739 62.3868H113.858ZM114.076 60.6538L113.071 63.3808H113.507L113.741 62.7148H114.855L115.089 63.3808H115.526L114.528 60.6538H114.076ZM118.553 62.2198H117.813V61.9008H118.97V63.3808H118.592L118.557 62.9798C118.466 63.1217 118.352 63.2327 118.214 63.3108C118.077 63.3888 117.897 63.4277 117.676 63.4277C117.419 63.4277 117.195 63.3688 117.002 63.2518C116.81 63.1357 116.661 62.9718 116.554 62.7618C116.448 62.5508 116.395 62.3058 116.395 62.0247C116.395 61.7467 116.449 61.5008 116.558 61.2878C116.667 61.0748 116.823 60.9078 117.024 60.7868C117.225 60.6668 117.463 60.6068 117.739 60.6068C118.05 60.6068 118.31 60.6818 118.518 60.8318C118.726 60.9838 118.861 61.1908 118.923 61.4557H118.456C118.415 61.3108 118.333 61.1968 118.21 61.1138C118.088 61.0298 117.931 60.9888 117.739 60.9888C117.454 60.9888 117.229 61.0798 117.065 61.2648C116.901 61.4488 116.82 61.7038 116.82 62.0288C116.82 62.3538 116.9 62.6068 117.061 62.7878C117.222 62.9708 117.436 63.0618 117.704 63.0618C117.974 63.0618 118.177 62.9848 118.314 62.8307C118.45 62.6777 118.53 62.4748 118.553 62.2198ZM120.626 60.6534H120.213V63.3814H121.865V63.0534H120.626V60.6534Z" fill="#FFB9C6"/>
</svg>
