<svg width="162" height="101" viewBox="0 0 162 101" fill="none" xmlns="http://www.w3.org/2000/svg">
<path fill-rule="evenodd" clip-rule="evenodd" d="M50.4816 33.4177C51.2166 33.6827 51.8856 34.0687 52.4886 34.5747C53.0666 35.1047 53.5366 35.7677 53.8986 36.5627C54.2596 37.3587 54.4406 38.2747 54.4406 39.3107V52.9047C54.4406 53.9897 54.2596 54.9177 53.8986 55.6887C53.5366 56.4607 53.0666 57.0987 52.4886 57.6047C51.8856 58.1357 51.2166 58.5337 50.4816 58.7987C49.7466 59.0627 49.0056 59.1957 48.2586 59.1957C47.5106 59.1957 46.7696 59.0627 46.0346 58.7987C45.2996 58.5337 44.6426 58.1357 44.0646 57.6047C43.4616 57.0987 42.9796 56.4607 42.6186 55.6887C42.2566 54.9177 42.0756 53.9897 42.0756 52.9047V39.3107C42.0756 38.2747 42.2566 37.3587 42.6186 36.5627C42.9796 35.7677 43.4616 35.1047 44.0646 34.5747C44.6426 34.0687 45.2996 33.6827 46.0346 33.4177C46.7696 33.1527 47.5106 33.0197 48.2586 33.0197C49.0056 33.0197 49.7466 33.1527 50.4816 33.4177ZM38.931 53.23V51.639H35.243V52.905C35.243 53.412 35.171 53.834 35.026 54.17C34.882 54.508 34.701 54.773 34.484 54.966C34.243 55.159 33.983 55.297 33.706 55.381C33.429 55.466 33.17 55.508 32.929 55.508C32.085 55.508 31.501 55.255 31.176 54.749C30.85 54.243 30.687 53.617 30.687 52.869V39.709C30.687 38.841 30.838 38.124 31.139 37.557C31.441 36.992 32.049 36.708 32.965 36.708C33.664 36.708 34.218 36.973 34.628 37.503C35.038 38.034 35.243 38.66 35.243 39.383V40.613H38.931V39.167C38.931 38.275 38.78 37.449 38.479 36.69C38.177 35.93 37.762 35.274 37.232 34.719C36.147 33.586 34.737 33.02 33.001 33.02C32.109 33.02 31.296 33.17 30.561 33.472C29.826 33.774 29.193 34.189 28.663 34.719C28.133 35.25 27.723 35.876 27.433 36.599C27.144 37.323 27 38.106 27 38.95V53.122C27 54.303 27.186 55.273 27.56 56.033C27.933 56.792 28.41 57.413 28.988 57.894C29.567 58.376 30.218 58.714 30.941 58.907C31.664 59.099 32.374 59.196 33.074 59.196C33.893 59.196 34.659 59.034 35.369 58.708C36.08 58.382 36.701 57.943 37.232 57.388C37.762 56.834 38.177 56.202 38.479 55.49C38.78 54.78 38.931 54.026 38.931 53.23ZM88.8243 35.0446C89.4513 35.7196 89.8853 36.5096 90.1253 37.4126C90.3673 38.3166 90.4863 39.5406 90.4863 41.0826C90.4863 42.2396 90.4203 43.2156 90.2893 44.0116C90.1563 44.8066 89.8733 45.5546 89.4393 46.2526C88.9343 47.0966 88.2583 47.7536 87.4143 48.2236C86.5703 48.6926 85.4613 48.9286 84.0883 48.9286H82.2083V58.9786H78.5203V33.2366H84.0513C85.0643 33.2366 85.9553 33.3696 86.7273 33.6346C87.4983 33.8996 88.1973 34.3706 88.8243 35.0446ZM66.4075 46.8677H66.3355L61.5985 33.2367H58.0555V58.9787H61.7435V43.3237H61.8155L65.4325 54.3877H67.2765L70.9275 43.3237H70.9995V58.9787H74.6865V33.2367H71.1085L66.4075 46.8677ZM35.342 66.8777C35.539 66.7597 35.693 66.5907 35.804 66.3677C35.915 66.1457 35.97 65.8827 35.97 65.5757C35.97 65.2697 35.915 65.0057 35.804 64.7847C35.693 64.5627 35.539 64.3937 35.342 64.2757C35.145 64.1577 34.913 64.0977 34.647 64.0977C34.382 64.0977 34.149 64.1577 33.949 64.2757C33.75 64.3937 33.596 64.5627 33.487 64.7847C33.379 65.0057 33.325 65.2697 33.325 65.5757C33.325 65.8827 33.379 66.1457 33.487 66.3677C33.596 66.5907 33.75 66.7597 33.949 66.8777C34.149 66.9947 34.382 67.0547 34.647 67.0547C34.913 67.0547 35.145 66.9947 35.342 66.8777ZM34.647 63.5727C35.031 63.5727 35.367 63.6567 35.654 63.8267C35.943 63.9967 36.167 64.2307 36.327 64.5327C36.488 64.8337 36.568 65.1817 36.568 65.5757C36.568 65.9717 36.488 66.3187 36.327 66.6207C36.167 66.9207 35.943 67.1557 35.654 67.3247C35.367 67.4957 35.031 67.5807 34.647 67.5807C34.264 67.5807 33.927 67.4957 33.639 67.3247C33.351 67.1557 33.126 66.9207 32.964 66.6207C32.802 66.3187 32.721 65.9717 32.721 65.5757C32.721 65.1817 32.802 64.8337 32.964 64.5327C33.126 64.2307 33.351 63.9967 33.639 63.8267C33.927 63.6567 34.264 63.5727 34.647 63.5727ZM57.4572 66.8777C57.6542 66.7597 57.8082 66.5907 57.9192 66.3677C58.0302 66.1457 58.0862 65.8827 58.0862 65.5757C58.0862 65.2697 58.0302 65.0057 57.9192 64.7847C57.8082 64.5627 57.6542 64.3937 57.4572 64.2757C57.2602 64.1577 57.0282 64.0977 56.7622 64.0977C56.4972 64.0977 56.2642 64.1577 56.0642 64.2757C55.8662 64.3937 55.7122 64.5627 55.6022 64.7847C55.4942 65.0057 55.4402 65.2697 55.4402 65.5757C55.4402 65.8827 55.4942 66.1457 55.6022 66.3677C55.7122 66.5907 55.8662 66.7597 56.0642 66.8777C56.2642 66.9947 56.4972 67.0547 56.7622 67.0547C57.0282 67.0547 57.2602 66.9947 57.4572 66.8777ZM56.7622 63.5727C57.1462 63.5727 57.4822 63.6567 57.7692 63.8267C58.0582 63.9967 58.2822 64.2307 58.4422 64.5327C58.6032 64.8337 58.6842 65.1817 58.6842 65.5757C58.6842 65.9717 58.6032 66.3187 58.4422 66.6207C58.2822 66.9207 58.0582 67.1557 57.7692 67.3247C57.4822 67.4957 57.1462 67.5807 56.7622 67.5807C56.3792 67.5807 56.0422 67.4957 55.7552 67.3247C55.4662 67.1557 55.2412 66.9207 55.0792 66.6207C54.9172 66.3187 54.8362 65.9717 54.8362 65.5757C54.8362 65.1817 54.9172 64.8337 55.0792 64.5327C55.2412 64.2307 55.4662 63.9967 55.7552 63.8267C56.0422 63.6567 56.3792 63.5727 56.7622 63.5727ZM97.0364 65.8638H98.0884C98.0554 66.2258 97.9404 66.5148 97.7484 66.7328C97.5544 66.9508 97.2654 67.0598 96.8814 67.0598C96.5014 67.0598 96.1974 66.9308 95.9684 66.6718C95.7394 66.4138 95.6254 66.0538 95.6254 65.5928C95.6254 65.1318 95.7404 64.7698 95.9744 64.5078C96.2064 64.2458 96.5254 64.1148 96.9314 64.1148C97.2044 64.1148 97.4284 64.1738 97.6004 64.2928C97.7744 64.4108 97.8904 64.5728 97.9494 64.7798H98.6134C98.5244 64.4018 98.3334 64.1078 98.0384 63.8928C97.7424 63.6788 97.3734 63.5728 96.9314 63.5728C96.5394 63.5728 96.2014 63.6588 95.9154 63.8288C95.6294 64.0018 95.4094 64.2388 95.2544 64.5408C95.0984 64.8428 95.0214 65.1928 95.0214 65.5868C95.0214 65.9868 95.0974 66.3348 95.2484 66.6348C95.3994 66.9318 95.6114 67.1658 95.8854 67.3308C96.1584 67.4978 96.4764 67.5808 96.8424 67.5808C97.1554 67.5808 97.4114 67.5248 97.6064 67.4138C97.8024 67.3028 97.9644 67.1458 98.0944 66.9438L98.1434 67.5138H98.6804V65.4108H97.0364V65.8638ZM109.432 66.5562L107.489 63.6392H106.902V67.5142H107.489V64.5962L109.432 67.5142H110.019V63.6392H109.432V66.5562ZM104.477 67.5144H105.064V63.6394H104.477V67.5144ZM114.32 67.5142H111.856V63.6392H114.32V64.1152H112.443V65.3222H114.154V65.7862H112.443V67.0372H114.32V67.5142ZM120.981 65.2993H119.104V63.6393H118.517V67.5143H119.104V65.7803H120.981V67.5143H121.568V63.6393H120.981V65.2993ZM125.868 67.5142H123.404V63.6392H125.868V64.1152H123.991V65.3222H125.702V65.7862H123.991V67.0372H125.868V67.5142ZM128.918 65.5093H128.204V64.1313H128.913C129.187 64.1313 129.383 64.1933 129.505 64.3173C129.627 64.4413 129.689 64.6063 129.689 64.8133C129.689 65.0193 129.626 65.1873 129.503 65.3163C129.379 65.4453 129.185 65.5093 128.918 65.5093ZM130.101 65.4493C130.229 65.2533 130.292 65.0353 130.292 64.7963C130.292 64.5803 130.243 64.3873 130.147 64.2113C130.052 64.0353 129.904 63.8973 129.708 63.7933C129.51 63.6903 129.258 63.6393 128.952 63.6393H127.617V67.5143H128.204V65.9523H128.897L129.649 67.5143H130.331L129.505 65.8693C129.774 65.7853 129.973 65.6453 130.101 65.4493ZM134.498 67.5142H132.035V63.6392H134.498V64.1152H132.621V65.3222H134.332V65.7862H132.621V67.0372H134.498V67.5142ZM100.447 63.6392H101.034V67.0492H102.795V67.5142H100.447V63.6392ZM62.3934 66.2183L61.0814 63.6393H60.3884V67.5143H60.9754V64.6573L62.1654 66.9603H62.6194L63.8044 64.6523V67.5143H64.3914V63.6393H63.7004L62.3934 66.2183ZM67.5586 65.4715C67.8356 65.4715 68.0346 65.4105 68.1536 65.2915C68.2726 65.1705 68.3336 65.0085 68.3336 64.8015C68.3336 64.5865 68.2726 64.4205 68.1536 64.3005C68.0346 64.1805 67.8356 64.1205 67.5586 64.1205H66.8166V65.4715H67.5586ZM67.5866 63.6395C67.8886 63.6395 68.1396 63.6885 68.3396 63.7905C68.5376 63.8935 68.6866 64.0295 68.7846 64.2065C68.8826 64.3815 68.9316 64.5795 68.9316 64.8015C68.9316 65.0115 68.8846 65.2035 68.7906 65.3805C68.6956 65.5555 68.5496 65.6945 68.3506 65.7975C68.1506 65.8995 67.8956 65.9525 67.5866 65.9525H66.8166V67.5145H66.2296V63.6395H67.5866ZM70.9852 66.1011L71.6102 64.3361L72.2362 66.1011H70.9852ZM71.2942 63.6391L69.8672 67.5141H70.4872L70.8182 66.5681H72.4022L72.7352 67.5141H73.3552L71.9372 63.6391H71.2942ZM75.5338 63.6392L77.4778 66.5562V63.6392H78.0648V67.5142H77.4778L75.5338 64.5962V67.5142H74.9478V63.6392H75.5338ZM81.1819 65.5093L80.2689 63.6393H79.6049L80.8899 66.0843V67.5143H81.4759V66.0843L82.7479 63.6393H82.0909L81.1819 65.5093ZM87.6424 64.1148H86.4964V63.6388H89.3704V64.1148H88.2294V67.5138H87.6424V64.1148ZM91.4173 66.1011L92.0433 64.3361L92.6693 66.1011H91.4173ZM91.7273 63.6391L90.2993 67.5141H90.9193L91.2513 66.5681H92.8343L93.1673 67.5141H93.7873L92.3693 63.6391H91.7273ZM43.6085 65.5093H44.3235C44.5895 65.5093 44.7835 65.4453 44.9075 65.3163C45.0315 65.1873 45.0935 65.0193 45.0935 64.8133C45.0935 64.6063 45.0325 64.4413 44.9105 64.3173C44.7885 64.1933 44.5915 64.1313 44.3175 64.1313H43.6085V65.5093ZM45.6965 64.7963C45.6965 65.0353 45.6335 65.2533 45.5055 65.4493C45.3775 65.6453 45.1795 65.7853 44.9105 65.8693L45.7355 67.5143H45.0545L44.3015 65.9523H43.6085V67.5143H43.0215V63.6393H44.3565C44.6635 63.6393 44.9145 63.6903 45.1125 63.7933C45.3095 63.8973 45.4565 64.0353 45.5525 64.2113C45.6485 64.3873 45.6965 64.5803 45.6965 64.7963ZM51.6082 64.0982C51.8932 64.0982 52.1202 64.1642 52.2892 64.2982C52.4592 64.4302 52.5692 64.6092 52.6222 64.8342H53.2742C53.1982 64.4352 53.0152 64.1252 52.7262 63.9042C52.4392 63.6832 52.0682 63.5732 51.6132 63.5732C51.2312 63.5732 50.8992 63.6572 50.6202 63.8272C50.3412 63.9962 50.1272 64.2312 49.9752 64.5332C49.8242 64.8332 49.7492 65.1832 49.7492 65.5812C49.7492 65.9772 49.8242 66.3252 49.9752 66.6252C50.1272 66.9252 50.3412 67.1602 50.6202 67.3272C50.8992 67.4952 51.2312 67.5802 51.6132 67.5802C52.0682 67.5802 52.4392 67.4712 52.7262 67.2532C53.0152 67.0362 53.1982 66.7362 53.2742 66.3512H52.6222C52.5692 66.5692 52.4592 66.7412 52.2892 66.8662C52.1202 66.9922 51.8932 67.0542 51.6082 67.0542C51.2212 67.0542 50.9142 66.9222 50.6902 66.6612C50.4652 66.4002 50.3532 66.0392 50.3532 65.5812C50.3532 65.1202 50.4652 64.7572 50.6902 64.4942C50.9142 64.2302 51.2212 64.0982 51.6082 64.0982ZM40.6302 66.064C40.6302 66.403 40.5492 66.652 40.3872 66.81C40.2252 66.97 40.0072 67.049 39.7342 67.049C39.4562 67.049 39.2372 66.97 39.0752 66.81C38.9132 66.652 38.8312 66.403 38.8312 66.064V63.639H38.2442V66.058C38.2442 66.406 38.3112 66.691 38.4412 66.916C38.5712 67.141 38.7492 67.308 38.9722 67.417C39.1952 67.526 39.4452 67.581 39.7232 67.581C39.9962 67.581 40.2462 67.526 40.4722 67.417C40.6992 67.308 40.8802 67.141 41.0162 66.916C41.1512 66.691 41.2172 66.406 41.2172 66.058V63.639H40.6302V66.064ZM96.346 33.2368L90.596 58.9788H94.283L95.369 53.4478H100.395L101.479 58.9788H105.166L99.418 33.2368H96.346ZM116.375 33.2368H120.063V58.9788H116.592L110.952 43.5048H110.879V58.9788H107.192V33.2368H110.735L116.303 48.7478H116.375V33.2368ZM132.03 33.2368L129.065 43.4678H128.993L126.028 33.2368H122.124L127.184 48.0958V58.9788H130.872V48.0958L135.934 33.2368H132.03ZM29.1 63.6393L30.013 65.5093L30.922 63.6393H31.579L30.307 66.0843V67.5143H29.721V66.0843L28.436 63.6393H29.1Z" fill="#FFB9C6"/>
</svg>
