<svg width="162" height="101" viewBox="0 0 162 101" fill="none" xmlns="http://www.w3.org/2000/svg">
<path fill-rule="evenodd" clip-rule="evenodd" d="M69.165 20.0197V36.6767L52.508 20.0197V63.4627H69.165H95.951H112.608L69.165 20.0197ZM57.1483 73.5012C57.7083 73.5012 58.1583 73.6322 58.4983 73.8922C58.8383 74.1512 59.0603 74.5102 59.1643 74.9652H60.8563C60.6963 74.0622 60.2943 73.3592 59.6503 72.8592C59.0063 72.3592 58.1803 72.1092 57.1723 72.1092C56.3243 72.1092 55.5963 72.2932 54.9883 72.6612C54.3803 73.0292 53.9123 73.5412 53.5843 74.1972C53.2563 74.8542 53.0923 75.6092 53.0923 76.4652C53.0923 77.3212 53.2563 78.0752 53.5843 78.7282C53.9123 79.3802 54.3803 79.8882 54.9883 80.2512C55.5963 80.6152 56.3243 80.7972 57.1723 80.7972C58.1803 80.7972 59.0063 80.5542 59.6503 80.0652C60.2943 79.5772 60.6963 78.9012 60.8563 78.0372H59.1643C59.0603 78.4702 58.8383 78.8082 58.4983 79.0522C58.1583 79.2962 57.7083 79.4172 57.1483 79.4172C56.3723 79.4172 55.7643 79.1552 55.3243 78.6312C54.8843 78.1072 54.6643 77.3862 54.6643 76.4652C54.6643 75.5462 54.8843 74.8212 55.3243 74.2932C55.7643 73.7662 56.3723 73.5012 57.1483 73.5012ZM70.3422 78.6252C69.8662 79.1532 69.2282 79.4172 68.4282 79.4172C67.6282 79.4172 66.9882 79.1532 66.5082 78.6252C66.0282 78.0982 65.7882 77.3732 65.7882 76.4532C65.7882 75.5332 66.0282 74.8102 66.5082 74.2812C66.9882 73.7532 67.6282 73.4892 68.4282 73.4892C69.2282 73.4892 69.8662 73.7532 70.3422 74.2812C70.8182 74.8102 71.0562 75.5332 71.0562 76.4532C71.0562 77.3732 70.8182 78.0982 70.3422 78.6252ZM70.6242 72.6612C69.9922 72.2932 69.2602 72.1092 68.4282 72.1092C67.5882 72.1092 66.8542 72.2932 66.2262 72.6612C65.5982 73.0292 65.1062 73.5392 64.7502 74.1912C64.3942 74.8442 64.2162 75.5982 64.2162 76.4532C64.2162 77.3102 64.3942 78.0632 64.7502 78.7152C65.1062 79.3672 65.5982 79.8782 66.2262 80.2452C66.8542 80.6132 67.5882 80.7972 68.4282 80.7972C69.2602 80.7972 69.9922 80.6132 70.6242 80.2452C71.2562 79.8782 71.7482 79.3672 72.1002 78.7152C72.4522 78.0632 72.6282 77.3102 72.6282 76.4532C72.6282 75.5982 72.4522 74.8442 72.1002 74.1912C71.7482 73.5392 71.2562 73.0292 70.6242 72.6612ZM78.0876 72.2532L80.7646 77.5812L83.4036 72.2532H85.2276V80.6532H83.6916V74.8572L81.3526 79.4532H80.1406L77.7996 74.8572V80.6532H76.2646V72.2532H78.0876ZM93.31 75.8C93.074 76.035 92.688 76.154 92.152 76.154H90.675V73.501H92.152C92.688 73.501 93.074 73.619 93.31 73.856C93.545 74.092 93.664 74.417 93.664 74.833C93.664 75.241 93.545 75.564 93.31 75.8ZM93.915 72.589C93.476 72.365 92.919 72.253 92.248 72.253H89.14V80.654H90.675V77.402H92.248C92.936 77.402 93.499 77.283 93.94 77.047C94.379 76.812 94.704 76.499 94.912 76.112C95.12 75.724 95.224 75.298 95.224 74.833C95.224 74.346 95.116 73.905 94.9 73.514C94.684 73.121 94.356 72.814 93.915 72.589ZM101.188 74.018L99.976 77.51H102.412L101.188 74.018ZM97.264 80.654L100.335 72.253H102.064L105.136 80.654H103.503L102.831 78.709H99.556L98.872 80.654H97.264ZM113.979 78.1691L110.031 72.2531H108.496V80.6531H110.031V74.7491L113.979 80.6531H115.515V72.2531H113.979V78.1691ZM122.379 76.1291L124.228 72.2531H125.944L123.136 77.6651V80.6531H121.6V77.6651L118.78 72.2531H120.52L122.379 76.1291ZM37 80.6543L40.073 72.2533H41.801L44.873 80.6543H43.241L42.569 78.7093H39.293L38.609 80.6543H37ZM42.148 77.5103L40.924 74.0183L39.712 77.5103H42.148Z" fill="#FFB9C6"/>
</svg>
