<svg width="162" height="101" viewBox="0 0 162 101" fill="none" xmlns="http://www.w3.org/2000/svg">
<path fill-rule="evenodd" clip-rule="evenodd" d="M67.203 30.0197L55.879 49.6317L67.203 69.2427H89.847L101.171 49.6317L89.847 30.0197H67.203ZM68.235 49.6317L73.381 40.7197H83.669L88.815 49.6317L83.669 58.5427H73.381L68.235 49.6317ZM18 41.4605V43.6635H20.708V57.8025H23.05V43.6635H25.759V41.4605H18ZM34 57.803H27.021V41.46H34V43.663H29.363V48.461H33.402V50.664H29.363V55.462H34V57.803ZM43.3647 41.4603H40.8847L39.0947 46.3033L37.3277 41.4603H34.8487L37.9017 49.2413L34.5947 57.8033H37.0757L39.0947 52.2943L41.1377 57.8033H43.6167L40.2417 49.2413L43.3647 41.4603ZM46.439 43.6634H43.73V41.4604H51.49V43.6634H48.781V57.8034H46.439V43.6634ZM108.941 41.4603H106.599V57.8033H113.578V55.4623H108.941V41.4603ZM130.529 41.5749C130.995 41.7439 131.419 41.9879 131.802 42.3089C132.169 42.6459 132.468 43.0669 132.697 43.5719C132.927 44.0769 133.042 44.6589 133.042 45.3159V46.1429H130.7V45.3159C130.7 44.7499 130.544 44.3329 130.23 44.0649C129.915 43.7969 129.544 43.6629 129.116 43.6629C128.689 43.6629 128.318 43.7969 128.003 44.0649C127.689 44.3329 127.532 44.7499 127.532 45.3159V53.9469C127.532 54.5129 127.689 54.9299 128.003 55.1979C128.318 55.4659 128.689 55.5999 129.116 55.5999C129.544 55.5999 129.915 55.4659 130.23 55.1979C130.544 54.9299 130.7 54.5129 130.7 53.9469V50.8719H128.841V48.8049H133.042V53.9469C133.042 54.6349 132.927 55.2249 132.697 55.7139C132.468 56.2049 132.169 56.6099 131.802 56.9309C131.419 57.2679 130.995 57.5199 130.529 57.6879C130.062 57.8569 129.591 57.9409 129.116 57.9409C128.642 57.9409 128.171 57.8569 127.704 57.6879C127.238 57.5199 126.822 57.2679 126.454 56.9309C126.072 56.6099 125.765 56.2049 125.536 55.7139C125.306 55.2249 125.191 54.6349 125.191 53.9469V45.3159C125.191 44.6589 125.306 44.0769 125.536 43.5719C125.765 43.0669 126.072 42.6459 126.454 42.3089C126.822 41.9879 127.238 41.7439 127.704 41.5749C128.171 41.4069 128.642 41.3229 129.116 41.3229C129.591 41.3229 130.062 41.4069 130.529 41.5749ZM120.693 53.9466C120.693 54.5126 120.537 54.9296 120.222 55.1976C119.908 55.4666 119.537 55.5996 119.109 55.5996C118.681 55.5996 118.31 55.4666 117.996 55.1976C117.681 54.9296 117.525 54.5126 117.525 53.9466V45.3156C117.525 44.7506 117.681 44.3336 117.996 44.0646C118.31 43.7976 118.681 43.6636 119.109 43.6636C119.537 43.6636 119.908 43.7976 120.222 44.0646C120.537 44.3336 120.693 44.7506 120.693 45.3156V53.9466ZM121.795 42.3086C121.412 41.9876 120.988 41.7436 120.521 41.5746C120.054 41.4066 119.584 41.3226 119.109 41.3226C118.634 41.3226 118.164 41.4066 117.697 41.5746C117.23 41.7436 116.814 41.9876 116.447 42.3086C116.064 42.6456 115.757 43.0666 115.529 43.5716C115.298 44.0766 115.183 44.6586 115.183 45.3156V53.9466C115.183 54.6346 115.298 55.2246 115.529 55.7146C115.757 56.2046 116.064 56.6096 116.447 56.9306C116.814 57.2676 117.23 57.5196 117.697 57.6876C118.164 57.8566 118.634 57.9406 119.109 57.9406C119.584 57.9406 120.054 57.8566 120.521 57.6876C120.988 57.5196 121.412 57.2676 121.795 56.9306C122.162 56.6096 122.461 56.2046 122.689 55.7146C122.92 55.2246 123.035 54.6346 123.035 53.9466V45.3156C123.035 44.6586 122.92 44.0766 122.689 43.5716C122.461 43.0666 122.162 42.6456 121.795 42.3086ZM140.238 55.1976C140.552 54.9296 140.709 54.5126 140.709 53.9466V45.3156C140.709 44.7506 140.552 44.3336 140.238 44.0646C139.924 43.7976 139.552 43.6636 139.125 43.6636C138.697 43.6636 138.326 43.7976 138.012 44.0646C137.697 44.3336 137.541 44.7506 137.541 45.3156V53.9466C137.541 54.5126 137.697 54.9296 138.012 55.1976C138.326 55.4666 138.697 55.5996 139.125 55.5996C139.552 55.5996 139.924 55.4666 140.238 55.1976ZM141.811 42.3086C142.177 42.6456 142.477 43.0666 142.704 43.5716C142.936 44.0766 143.05 44.6586 143.05 45.3156V53.9466C143.05 54.6346 142.936 55.2246 142.704 55.7146C142.477 56.2046 142.177 56.6096 141.811 56.9306C141.427 57.2676 141.004 57.5196 140.536 57.6876C140.07 57.8566 139.6 57.9406 139.125 57.9406C138.649 57.9406 138.18 57.8566 137.713 57.6876C137.245 57.5196 136.829 57.2676 136.463 56.9306C136.079 56.6096 135.772 56.2046 135.545 55.7146C135.313 55.2246 135.199 54.6346 135.199 53.9466V45.3156C135.199 44.6586 135.313 44.0766 135.545 43.5716C135.772 43.0666 136.079 42.6456 136.463 42.3086C136.829 41.9876 137.245 41.7436 137.713 41.5746C138.18 41.4066 138.649 41.3226 139.125 41.3226C139.6 41.3226 140.07 41.4066 140.536 41.5746C141.004 41.7436 141.427 41.9876 141.811 42.3086Z" fill="#FFB9C6"/>
</svg>
