<svg width="162" height="101" viewBox="0 0 162 101" fill="none" xmlns="http://www.w3.org/2000/svg">
<path fill-rule="evenodd" clip-rule="evenodd" d="M41.916 39.9257C41.916 44.6027 45.707 48.3947 50.385 48.3947C55.062 48.3947 58.854 44.6027 58.854 39.9257C58.854 35.2477 55.062 31.4567 50.385 31.4567C45.707 31.4567 41.916 35.2477 41.916 39.9257ZM10 50.1657C10 33.5167 23.496 20.0197 40.145 20.0197C56.794 20.0197 70.29 33.5167 70.29 50.1657C70.29 66.8137 56.794 80.3107 40.145 80.3107C23.496 80.3107 10 66.8137 10 50.1657ZM82.7818 44.5623C81.6438 44.5623 80.6668 44.3183 79.8518 43.8293C79.0358 43.3413 78.4078 42.6593 77.9678 41.7843C77.5278 40.9103 77.3078 39.8983 77.3078 38.7493C77.3078 37.6013 77.5278 36.5863 77.9678 35.7063C78.4078 34.8263 79.0358 34.1393 79.8518 33.6453C80.6668 33.1523 81.6438 32.9053 82.7818 32.9053C84.1348 32.9053 85.2428 33.2403 86.1058 33.9113C86.9718 34.5823 87.5108 35.5243 87.7258 36.7373H85.4558C85.3148 36.1253 85.0188 35.6443 84.5608 35.2963C84.1048 34.9473 83.5008 34.7723 82.7498 34.7723C81.7088 34.7723 80.8928 35.1263 80.3028 35.8353C79.7118 36.5433 79.4168 37.5153 79.4168 38.7493C79.4168 39.9843 79.7118 40.9533 80.3028 41.6563C80.8928 42.3593 81.7088 42.7103 82.7498 42.7103C83.5008 42.7103 84.1048 42.5473 84.5608 42.2193C85.0188 41.8923 85.3148 41.4383 85.4558 40.8583H87.7258C87.5108 42.0183 86.9718 42.9253 86.1058 43.5793C85.2428 44.2343 84.1348 44.5623 82.7818 44.5623ZM93.3443 37.9762C92.7973 37.9762 92.3283 38.1782 91.9363 38.5802C91.5433 38.9832 91.3483 39.5812 91.3483 40.3752C91.3483 41.1702 91.5433 41.7682 91.9363 42.1712C92.3283 42.5732 92.7913 42.7742 93.3293 42.7742C93.8653 42.7742 94.3323 42.5732 94.7293 42.1712C95.1263 41.7682 95.3253 41.1702 95.3253 40.3752C95.3253 39.5812 95.1263 38.9832 94.7293 38.5802C94.3323 38.1782 93.8713 37.9762 93.3443 37.9762ZM93.3293 44.5622C92.5553 44.5622 91.8613 44.3852 91.2443 44.0312C90.6253 43.6762 90.1373 43.1852 89.7783 42.5572C89.4183 41.9292 89.2393 41.2022 89.2393 40.3752C89.2393 39.5492 89.4213 38.8222 89.7863 38.1942C90.1513 37.5662 90.6423 37.0752 91.2593 36.7212C91.8763 36.3662 92.5723 36.1892 93.3443 36.1892C94.1073 36.1892 94.7963 36.3662 95.4143 36.7212C96.0313 37.0752 96.5193 37.5662 96.8783 38.1942C97.2383 38.8222 97.4183 39.5492 97.4183 40.3752C97.4183 41.2022 97.2383 41.9292 96.8783 42.5572C96.5193 43.1852 96.0283 43.6762 95.4063 44.0312C94.7833 44.3852 94.0903 44.5622 93.3293 44.5622ZM109.139 36.1896C108.559 36.1896 108.026 36.3176 107.537 36.5756C107.048 36.8336 106.66 37.1826 106.369 37.6226C105.855 36.6676 104.98 36.1896 103.745 36.1896C103.187 36.1896 102.696 36.3046 102.272 36.5356C101.848 36.7666 101.507 37.0746 101.249 37.4616L101.073 36.3826H99.2534V44.3686H101.314V40.2466C101.314 39.5176 101.483 38.9486 101.821 38.5406C102.16 38.1326 102.602 37.9286 103.15 37.9286C103.707 37.9286 104.12 38.1106 104.389 38.4756C104.658 38.8406 104.791 39.3666 104.791 40.0536V44.3686H106.853V40.2466C106.853 39.5176 107.022 38.9486 107.36 38.5406C107.698 38.1326 108.146 37.9286 108.704 37.9286C109.251 37.9286 109.657 38.1106 109.92 38.4756C110.183 38.8406 110.315 39.3666 110.315 40.0536V44.3686H112.375V39.8606C112.375 38.6586 112.096 37.7456 111.538 37.1236C110.98 36.5016 110.18 36.1896 109.139 36.1896ZM118.639 42.7588C119.293 42.7588 119.835 42.5388 120.265 42.0988C120.695 41.6588 120.91 41.0898 120.91 40.3918C120.91 39.6938 120.695 39.1198 120.265 38.6688C119.835 38.2188 119.293 37.9928 118.639 37.9928C117.973 37.9928 117.428 38.2158 117.004 38.6608C116.58 39.1068 116.369 39.6778 116.369 40.3758C116.369 41.0738 116.58 41.6448 117.004 42.0908C117.428 42.5358 117.973 42.7588 118.639 42.7588ZM121.086 36.7368C121.676 37.1018 122.143 37.6008 122.487 38.2338C122.83 38.8678 123.002 39.5868 123.002 40.3918C123.002 41.1968 122.83 41.9128 122.487 42.5408C122.143 43.1688 121.676 43.6628 121.086 44.0228C120.495 44.3818 119.825 44.5618 119.074 44.5618C118.472 44.5618 117.947 44.4498 117.495 44.2238C117.045 43.9988 116.68 43.6818 116.401 43.2738V47.9108H114.34V36.3828H116.175L116.401 37.5258C116.659 37.1718 116.999 36.8608 117.423 36.5918C117.847 36.3238 118.398 36.1898 119.074 36.1898C119.825 36.1898 120.495 36.3718 121.086 36.7368ZM129.435 42.3722C129.107 42.7582 128.649 42.9522 128.058 42.9522C127.671 42.9522 127.361 42.8662 127.124 42.6942C126.888 42.5222 126.77 42.2812 126.77 41.9702C126.77 41.6802 126.888 41.4352 127.124 41.2372C127.361 41.0392 127.752 40.9392 128.3 40.9392H130.055C129.969 41.5082 129.762 41.9862 129.435 42.3722ZM128.075 39.6512C126.915 39.6512 126.045 39.8822 125.466 40.3432C124.886 40.8052 124.596 41.4062 124.596 42.1462C124.596 42.5872 124.704 42.9892 124.918 43.3542C125.133 43.7192 125.46 44.0122 125.901 44.2322C126.34 44.4522 126.905 44.5622 127.591 44.5622C128.256 44.5622 128.801 44.4222 129.226 44.1432C129.65 43.8642 129.98 43.5102 130.216 43.0802L130.409 44.3692H132.164V39.4582C132.164 38.4172 131.836 37.6122 131.182 37.0422C130.527 36.4742 129.63 36.1892 128.493 36.1892C127.828 36.1892 127.226 36.3052 126.69 36.5362C126.153 36.7672 125.715 37.0972 125.377 37.5262C125.039 37.9552 124.843 38.4592 124.789 39.0392H126.802C126.877 38.6532 127.071 38.3602 127.382 38.1622C127.693 37.9632 128.058 37.8642 128.477 37.8642C128.938 37.8642 129.325 37.9932 129.636 38.2502C129.948 38.5082 130.103 38.9102 130.103 39.4582V39.6512H128.075ZM141.954 39.8608V44.3688H139.892V40.0538C139.892 39.3668 139.753 38.8408 139.475 38.4758C139.195 38.1108 138.76 37.9288 138.17 37.9288C137.591 37.9288 137.115 38.1328 136.745 38.5398C136.375 38.9488 136.189 39.5168 136.189 40.2468V44.3688H134.129V36.3828H135.948L136.109 37.7348C136.355 37.2628 136.713 36.8878 137.18 36.6078C137.646 36.3288 138.196 36.1898 138.83 36.1898C139.817 36.1898 140.585 36.5008 141.133 37.1228C141.68 37.7458 141.954 38.6588 141.954 39.8608ZM146.494 43.8376L144.642 47.9116H146.832L151.904 36.3826H149.714L147.38 42.0026L145.141 36.3826H142.903L146.011 43.8376H146.494ZM77.0178 52.4191H85.6648V54.0771H82.3628V63.6901H80.3028V54.0771H77.0178V52.4191ZM87.5164 58.9074C87.6234 58.3294 87.8704 57.8954 88.2564 57.6124C88.6434 57.3274 89.0884 57.1844 89.5934 57.1844C90.1194 57.1844 90.5594 57.3414 90.9134 57.6514C91.2674 57.9644 91.4604 58.3824 91.4934 58.9074H87.5164ZM91.6704 56.0264C91.0694 55.6824 90.3764 55.5114 89.5934 55.5114C88.7554 55.5114 88.0294 55.6904 87.4124 56.0504C86.7934 56.4094 86.3114 56.9114 85.9624 57.5554C85.6134 58.2004 85.4394 58.9344 85.4394 59.7614C85.4394 60.5774 85.6164 61.2964 85.9704 61.9194C86.3254 62.5424 86.8134 63.0244 87.4354 63.3684C88.0584 63.7124 88.7724 63.8844 89.5774 63.8844C90.2214 63.8844 90.7974 63.7644 91.3084 63.5284C91.8184 63.2924 92.2464 62.9684 92.5964 62.5554C92.9454 62.1414 93.1944 61.6824 93.3444 61.1784H91.2514C91.1124 61.4794 90.9004 61.7234 90.6164 61.9114C90.3304 62.0984 89.9794 62.1924 89.5614 62.1924C89.0024 62.1924 88.5284 62.0144 88.1364 61.6614C87.7444 61.3074 87.5274 60.8194 87.4844 60.1964H93.5544C93.5644 60.0554 93.5734 59.9234 93.5784 59.7944C93.5834 59.6654 93.5864 59.5424 93.5864 59.4234C93.5864 58.6924 93.4164 58.0304 93.0784 57.4344C92.7414 56.8394 92.2714 56.3704 91.6704 56.0264ZM98.2553 58.5383L100.268 55.7043H102.49L99.5763 59.6963L102.49 63.6903H100.268L98.2553 60.8563L96.2273 63.6903H94.0213L96.9193 59.6963L94.0213 55.7043H96.2273L98.2553 58.5383ZM106.66 53.5617H104.841L104.599 55.7047H103.23V57.4267H104.599V60.9057C104.599 61.9467 104.851 62.6707 105.355 63.0777C105.86 63.4857 106.531 63.6907 107.368 63.6907H108.769V61.9347H107.771C107.363 61.9347 107.076 61.8627 106.91 61.7177C106.743 61.5737 106.66 61.3077 106.66 60.9207V57.4267H108.817V55.7047H106.66V53.5617ZM114.468 52.4191H116.53V62.0791H121.521V63.6901H114.468V52.4191ZM128.171 61.4914C127.774 61.8954 127.307 62.0964 126.771 62.0964C126.234 62.0964 125.77 61.8954 125.378 61.4914C124.985 61.0894 124.79 60.4914 124.79 59.6964C124.79 58.9034 124.985 58.3034 125.378 57.9014C125.77 57.4994 126.239 57.2984 126.786 57.2984C127.313 57.2984 127.774 57.4994 128.171 57.9014C128.568 58.3034 128.767 58.9034 128.767 59.6964C128.767 60.4914 128.568 61.0894 128.171 61.4914ZM128.856 56.0424C128.238 55.6884 127.549 55.5114 126.786 55.5114C126.014 55.5114 125.318 55.6884 124.701 56.0424C124.084 56.3954 123.593 56.8874 123.228 57.5144C122.863 58.1434 122.681 58.8704 122.681 59.6964C122.681 60.5244 122.86 61.2514 123.22 61.8784C123.579 62.5074 124.067 62.9974 124.686 63.3524C125.303 63.7064 125.997 63.8844 126.771 63.8844C127.532 63.8844 128.225 63.7064 128.848 63.3524C129.47 62.9974 129.961 62.5074 130.32 61.8784C130.68 61.2514 130.86 60.5244 130.86 59.6964C130.86 58.8704 130.68 58.1434 130.32 57.5144C129.961 56.8874 129.473 56.3954 128.856 56.0424ZM135.577 59.7298C135.996 59.7298 136.342 59.6168 136.616 59.3918C136.889 59.1648 137.026 58.8428 137.026 58.4248C137.026 58.0068 136.889 57.6848 136.616 57.4578C136.342 57.2338 135.996 57.1208 135.577 57.1208C135.137 57.1208 134.783 57.2338 134.514 57.4578C134.246 57.6848 134.112 58.0068 134.112 58.4248C134.112 58.8428 134.246 59.1648 134.514 59.3918C134.783 59.6168 135.137 59.7298 135.577 59.7298ZM135.738 63.6258C135.298 63.5928 134.89 63.5458 134.514 63.4818C134.203 63.6538 133.98 63.8408 133.846 64.0438C133.712 64.2468 133.645 64.4578 133.645 64.6728C133.645 65.0698 133.83 65.3668 134.2 65.5658C134.571 65.7648 135.024 65.8648 135.561 65.8648C136.076 65.8648 136.495 65.7588 136.817 65.5498C137.138 65.3408 137.3 65.0578 137.3 64.7038C137.3 64.4148 137.195 64.1728 136.986 63.9798C136.776 63.7868 136.36 63.6688 135.738 63.6258ZM133.822 55.8978C134.305 55.6398 134.89 55.5108 135.577 55.5108C136.028 55.5108 136.446 55.5758 136.833 55.7038H139.86V56.9598L138.491 57.0558C138.706 57.4638 138.813 57.9148 138.813 58.4098C138.813 58.9468 138.684 59.4348 138.427 59.8738C138.17 60.3138 137.797 60.6628 137.307 60.9208C136.819 61.1788 136.242 61.3078 135.577 61.3078C135.19 61.3078 134.831 61.2648 134.498 61.1788L133.902 61.7748C134.085 61.8708 134.332 61.9508 134.643 62.0148C134.954 62.0798 135.459 62.1438 136.157 62.2078C137.22 62.3058 137.992 62.5578 138.475 62.9658C138.958 63.3738 139.2 63.9368 139.2 64.6558C139.2 65.1278 139.071 65.5778 138.813 66.0008C138.555 66.4248 138.158 66.7688 137.622 67.0308C137.085 67.2938 136.398 67.4248 135.561 67.4248C134.423 67.4248 133.506 67.2138 132.807 66.7898C132.11 66.3668 131.762 65.7298 131.762 64.8818C131.762 64.1628 132.11 63.5398 132.807 63.0148C132.593 62.9168 132.408 62.8158 132.252 62.7078C132.096 62.6008 131.96 62.4878 131.842 62.3708V61.9988L133.242 60.5188C132.62 59.9698 132.308 59.2688 132.308 58.4098C132.308 57.8718 132.44 57.3838 132.703 56.9448C132.966 56.5028 133.339 56.1558 133.822 55.8978ZM146.268 61.4914C145.871 61.8954 145.404 62.0964 144.868 62.0964C144.331 62.0964 143.867 61.8954 143.475 61.4914C143.082 61.0894 142.887 60.4914 142.887 59.6964C142.887 58.9034 143.082 58.3034 143.475 57.9014C143.867 57.4994 144.336 57.2984 144.883 57.2984C145.41 57.2984 145.871 57.4994 146.268 57.9014C146.665 58.3034 146.864 58.9034 146.864 59.6964C146.864 60.4914 146.665 61.0894 146.268 61.4914ZM146.953 56.0424C146.335 55.6884 145.646 55.5114 144.883 55.5114C144.111 55.5114 143.415 55.6884 142.798 56.0424C142.181 56.3954 141.69 56.8874 141.325 57.5144C140.96 58.1434 140.778 58.8704 140.778 59.6964C140.778 60.5244 140.957 61.2514 141.317 61.8784C141.676 62.5074 142.164 62.9974 142.783 63.3524C143.4 63.7064 144.094 63.8844 144.868 63.8844C145.629 63.8844 146.322 63.7064 146.945 63.3524C147.567 62.9974 148.058 62.5074 148.417 61.8784C148.777 61.2514 148.957 60.5244 148.957 59.6964C148.957 58.8704 148.777 58.1434 148.417 57.5144C148.058 56.8874 147.57 56.3954 146.953 56.0424Z" fill="#FFB9C6"/>
</svg>
